# xmcd CD database file
#
# Track frame offsets:
#	150
#	14478
#	26076
#	39224
#	57434
#	74697
#	93684
#	117653
#	131525
#	142613
#	156236
#	171875
#	189324
#	205182
#
# Disc length: 3024 seconds
#
# Revision: 0
# Processed by: cddbd v1.5.1PL0 Copyright (c) Steve Scherf et al.
# Submitted via: CDex 1.51
#
DISCID=c70bce0e
DTITLE=Boogie Leg - Cut To The Bone
DYEAR=2004
DGENRE=Blues
TTITLE0=Every Day I Have the Blues
TTITLE1=Lonesome
TTITLE2=Treat Me So Low Down
TTITLE3=Oh What a Thrill
TTITLE4=Ain't no big deal on you
TTITLE5=I Love the Woman
TTITLE6=Stranger Blues
TTITLE7=Big Legged Woman
TTITLE8=Bad Luck Soul
TTITLE9=Yonder Wall
TTITLE10=Tell Me What True Love Is
TTITLE11=Won't Be Hanging Around
TTITLE12=That ain't the way to do it
TTITLE13=Up the line
EXTD=YEAR: 2004
EXTT0=
EXTT1=
EXTT2=
EXTT3=
EXTT4=
EXTT5=
EXTT6=
EXTT7=
EXTT8=
EXTT9=
EXTT10=
EXTT11=
EXTT12=
EXTT13=
PLAYORDER=
